# xmcd
#
# Track frame offsets:
#	150
#	12300
#	33975
#	50625
#	71250
#	85500
#	99525
#	111375
#	126000
#	144000
#	163950
#	176475
#	192150
#	211125
#	225225
#	243225
#	256800
#	274500
#
# Disc length: 3814 seconds
#
# Revision: 2
# Processed by: cddbd v1.5.2PL0 Copyright (c) Steve Scherf et al.
# Submitted via: audiograbber 1.83.01
#
DISCID=e40ee412
DTITLE=Various Artist - PCDG217
DYEAR=1900
DGENRE=Karaoke Country
TTITLE0=Statler Brothers - Flowers On The Wall
TTITLE1=Carpenter, Mary Chapin - Come On, Come On
TTITLE2=Judds - Have Mercy
TTITLE3=Rogers, Kenny - Through The Years
TTITLE4=Forester Sisters - Mama'S Never Seen Those Eyes
TTITLE5=Conley, Earl Thomas - Don'T Make It Easy For Me
TTITLE6=Van Dyke, Leroy - Walk On By
TTITLE7=Alabama - Here We Are
TTITLE8=Gill, Vince - I Still Believe In You
TTITLE9=Yearwood, Trisha - Walkaway Joe 
TTITLE10=Tucker, Tanya - It'S A Little Too Late
TTITLE11=Black, Clint - When My Ship Comes In
TTITLE12=Wright, Michelle - Take It Like A Man
TTITLE13=Yearwood, Trisha - Xxx'S and Ooo'S
TTITLE14=Brooks, Garth - One Night A Day
TTITLE15=Montgomery, John Michael - Be My Baby Tonight
TTITLE16=Judd, Wynonna - Only Love
TTITLE17=Cash, Johnny - Get Rhythm
EXTD=
EXTT0=
EXTT1=
EXTT2=
EXTT3=
EXTT4=
EXTT5=
EXTT6=
EXTT7=
EXTT8=
EXTT9=
EXTT10=
EXTT11=
EXTT12=
EXTT13=
EXTT14=
EXTT15=
EXTT16=
EXTT17=
PLAYORDER=
